<?xml version="1.0" encoding="UTF-8"?>
<svg width="1920px" height="768px" viewBox="0 0 1920 768" version="1.1" xmlns="http://www.w3.org/2000/svg" xmlns:xlink="http://www.w3.org/1999/xlink">
    <!-- Generator: Sketch 56.2 (81672) - https://sketch.com -->
    <title>assets</title>
    <desc>Created with Sketch.</desc>
    <g id="assets" stroke="none" stroke-width="1" fill="none" fill-rule="evenodd">
        <path d="M20.7368986,9.75806804 C21.1175734,9.3462062 21.0808134,8.71494509 20.6548218,8.34847156 L11.269658,0.269891743 C10.8436664,-0.0965817939 10.160697,-0.08890484 9.74367295,0.28719856 L0.326609349,8.77918908 C-0.0904147298,9.15529248 -0.110882589,9.78574548 0.28129255,10.1867653 L0.517391704,10.4286567 C0.909087663,10.8296765 1.54222222,10.8774891 1.93063237,10.5351239 L2.63441184,9.91510889 L2.63441184,18.9922314 C2.63441184,19.5491473 3.09312464,20 3.65883163,20 L7.32962926,20 C7.89533625,20 8.35404905,19.5491473 8.35404905,18.9922314 L8.35404905,12.641909 L13.0361917,12.641909 L13.0361917,18.9922314 C13.0280456,19.5487433 13.4328164,19.9995959 13.9985234,19.9995959 L17.8886488,19.9995959 C18.4543558,19.9995959 18.9130686,19.5487433 18.9130686,18.9918274 L18.9130686,10.0429234 C18.9130686,10.0429234 19.107479,10.2104696 19.3472747,10.4178147 C19.5866597,10.6247557 20.0894571,10.4588258 20.4701319,10.0465599 L20.7368986,9.75806804 Z" id="Shape" fill="#FFFFFF" fill-rule="nonzero"></path>
        <path d="M20.7368986,105.758068 C21.1175734,105.346206 21.0808134,104.714945 20.6548218,104.348472 L11.269658,96.2698917 C10.8436664,95.9034182 10.160697,95.9110952 9.74367295,96.2871986 L0.326609349,104.779189 C-0.0904147298,105.155292 -0.110882589,105.785745 0.28129255,106.186765 L0.517391704,106.428657 C0.909087663,106.829677 1.54222222,106.877489 1.93063237,106.535124 L2.63441184,105.915109 L2.63441184,114.992231 C2.63441184,115.549147 3.09312464,116 3.65883163,116 L7.32962926,116 C7.89533625,116 8.35404905,115.549147 8.35404905,114.992231 L8.35404905,108.641909 L13.0361917,108.641909 L13.0361917,114.992231 C13.0280456,115.548743 13.4328164,115.999596 13.9985234,115.999596 L17.8886488,115.999596 C18.4543558,115.999596 18.9130686,115.548743 18.9130686,114.991827 L18.9130686,106.042923 C18.9130686,106.042923 19.107479,106.21047 19.3472747,106.417815 C19.5866597,106.624756 20.0894571,106.458826 20.4701319,106.04656 L20.7368986,105.758068 Z" id="Shape" fill="#000000" fill-rule="nonzero"></path>
        <path d="M106.8,4.99547511 L103.714286,4.99547511 L103.714286,0 L99.0857143,0 L99.0857143,4.99547511 L96,4.99547511 L101.4,10.8235294 L106.8,4.99547511 Z M96,12.6117647 L96,14.4 L106.8,14.4 L106.8,12.6117647 L96,12.6117647 Z" id="Shape" fill="#000000" fill-rule="nonzero"></path>
    </g>
</svg>