<svg width="167" height="69" viewBox="0 0 167 69" xmlns="http://www.w3.org/2000/svg" xmlns:xlink="http://www.w3.org/1999/xlink"><title>Logo</title><defs><path id="a" d="M15.685.205H.665v9.358h15.02z"/><path id="c" d="M9.608 6.755H0V.22h9.608z"/></defs><g fill="none" fill-rule="evenodd"><path d="M101.188 26.643c-.652-.47-2.326-1.413-5.025-1.413-1.581 0-3.81.27-6.044 1.214-.977.399-1.878.843-3.35 1.802 4.185-.755 6.698.658 7.535 1.225 6.604 4.525 3.348 16.686 2.047 19.514-2.511 5.28-5.21 8.58-7.816 10.465 1.843-.243 9.117-1.036 14.7-13.387 1.301-2.734 4.56-14.989-2.047-19.42m29.434 0c-.652-.47-2.327-1.413-5.025-1.413-1.582 0-3.81.27-6.044 1.214-.977.399-1.878.843-3.35 1.802 4.184-.755 6.698.658 7.535 1.225 6.604 4.525 3.348 16.686 2.046 19.514-2.51 5.28-5.21 8.58-7.815 10.465 1.842-.243 9.117-1.036 14.699-13.387 1.302-2.734 4.56-14.989-2.046-19.42M19.185 9.5c1.089-6.52 13.156-8.234 13.156-8.234-.278.187-4.769.694-6.256 7.682l-3.013 16.541h13.606l-1.117 6.827H22.047L17.28 61.37c-1.067 6.558-11.233 6.942-11.233 6.942s2.72-.435 3.628-5.848L19.185 9.5zM61.1 30.202l-3.867-5.75s-3.343 5.75-3.625 6.223l.054 19.702c.093 1.696.259 3.299.723 4.808.56 1.696 1.54 3.296 2.213 3.582h.095c.837 0 1.674-.19 2.603-.47 1.954-.661 4.373-2.358 6.884-4.809l.187-.187c6.327-6.13 11.536-20.355 11.164-24.973 0-1.322-4.932-3.965-6.326-4.059l-1.089 6.974c-.927 6.201-7.611 20.133-9.015 22.178V30.202zm81.786 28.021l4.166-23.161c.185-.944.373-1.886.465-2.64v-.095c.185-1.509.28-2.638.093-3.015-.185-.567-2.976-3.679-3.72-4.62-.28.47-3.444 6.033-3.536 6.223 0 0-4.2 24.009-4.85 27.308h7.382z" fill="#FFF" fill-rule="nonzero"/><path d="M147.834 34.793a.787.787 0 0 0-.122.161l.122-.161z" fill="#06F" fill-rule="nonzero"/><path d="M166.65 25.144c-3.92 0-6.867.9-6.867.9s-2.035.37-3.133.835l-.019.021c-.18.068-.341.13-.512.2l-.05.019c-4.168 1.761-5.793 4.392-5.793 4.392l-2.468 3.25c.996-1.058 5.98-1.592 9.47-1.878h.043c2.042-.209 5.544-.235 7.24-.235.602 0 .977.002.977.002l1.304-7.506h-.192M49.938 13.67c-3.548 0-6.213.806-6.213.806s-.87.12-1.613.306l-1.033 5.937c2.506-.216 7.853-.243 7.853-.243l1.181-6.807h-.175" fill="#FFF" fill-rule="nonzero"/><path d="M89.098 28.03c-.709 0-1.484.063-2.33.216-.838.659-2.047 1.79-3.164 3.016-1.674 1.98-3.068 4.147-4.092 6.6a23.996 23.996 0 0 0-1.862 8.579c-.092 2.638.095 4.714.745 6.598 1.304 3.773 3.723 5.75 7.443 6.224 0 0 1.38.19 2.523.19.06 0 .116-.003.175-.003 1.324-.959 2.67-2.283 4.003-4.042l-.002-.012a5.336 5.336 0 0 1-1.262.161c-6.518 0-6.855-13.99-2.646-22.786.65-1.317 2.224-3.29 3.434-4.33a10.463 10.463 0 0 0-2.965-.41m29.434-.001c-.709 0-1.484.063-2.33.216-.838.659-2.047 1.79-3.164 3.016-1.674 1.98-3.068 4.147-4.093 6.6a23.943 23.943 0 0 0-1.859 8.579c-.095 2.638.093 4.714.742 6.598 1.305 3.773 3.723 5.75 7.444 6.224 0 0 1.38.19 2.523.19.059 0 .116-.003.175-.003a1.16 1.16 0 0 0 .031-.024c.002 0 .005-.002.007-.005 1.311-.954 2.644-2.27 3.965-4.013l-.003-.012a5.336 5.336 0 0 1-1.261.161c-6.519 0-6.855-13.99-2.646-22.786.65-1.317 2.224-3.29 3.433-4.33a10.463 10.463 0 0 0-2.964-.41" fill-opacity=".5" fill="#FFF" fill-rule="nonzero"/><path d="M118.008 59.422c-.003 0-.005.003-.008.005.003-.002.005-.005.008-.005z" fill="#06F" fill-rule="nonzero"/><g transform="translate(25.31)"><mask id="b" fill="#fff"><use xlink:href="#a"/></mask><path d="M15.685.203L7.032 1.266c-.28.19-4.768.694-6.255 7.681l-.111.616h13.419l1.6-9.36z" fill-opacity=".5" fill="#FFF" fill-rule="nonzero" mask="url(#b)"/></g><g transform="translate(0 61.562)"><mask id="d" fill="#fff"><use xlink:href="#c"/></mask><path d="M4.124.22L0 4.305C2.511 5.624 3.256 6 6.047 6.755l.076-.007h.005c-.053.003-.081.003-.081.003s2.48-.397 3.493-5.147c.023-.11.047-.226.068-.339-.192.058-.237.123-.44.123-.392 0-1.364-.231-5.044-1.168" fill-opacity=".5" fill="#FFF" fill-rule="nonzero" mask="url(#d)"/></g><path d="M9.54 63.165c-1.012 4.75-3.492 5.15-3.492 5.15s.026-.003.08-.005c.432-.118 2.509-.897 3.412-5.145" fill="#06F" fill-rule="nonzero"/><path d="M43.791 24.692h-.035c-.093 0-3.813 3.3-4.743 4.147l1.233 2.074c.095-.187 3.265-5.75 3.545-6.221m13.415-.238c-.093 0-3.816 3.301-4.795 4.195l1.197 2.052v-.026c.145-.245 1.115-1.908 2.014-3.453.751-1.32 1.458-2.557 1.584-2.768" fill-opacity=".5" fill="#FFF" fill-rule="nonzero"/><path d="M55.62 27.223a909.796 909.796 0 0 1-2.013 3.453v.024l.015.024c.078-.13 1.074-1.88 1.999-3.501m88.268-2.531c-.093 0-3.813 3.3-4.745 4.147l1.21 2.074a748.65 748.65 0 0 1 3.535-6.221" fill-opacity=".5" fill="#FFF" fill-rule="nonzero"/><path d="M43.791 24.692c-.28.471-3.45 6.034-3.542 6.221 0 0-4.2 24.012-4.852 27.311h7.384l4.164-23.164c.187-.942.372-1.883.465-2.638v-.094c.187-1.509.28-2.64.095-3.018l-3.714-4.618z" fill="#FFF" fill-rule="nonzero"/><path d="M153.85 33.263c-2.72.31-5.329.793-6.021 1.53l-.116.157v-.003l-.842 1.13-1.271 7.06c2.592-3.454 7.315-9.607 8.25-9.874" fill-opacity=".5" fill="#FFF" fill-rule="nonzero"/><path d="M147.663 33.845l.13-.23-.13.23z" fill="#06F" fill-rule="nonzero"/><path d="M71.14 24.983c-.097.09-3.842 4.328-4.138 4.594 2.07 1.236 2.956 1.943 2.956 1.943 0-.12.557-3.074.906-4.97l.276-1.562v-.005" fill-opacity=".5" fill="#FFF" fill-rule="nonzero"/><path d="M71.14 24.989l-.276 1.56a45.05 45.05 0 0 0 .276-1.56" fill="#06F" fill-rule="nonzero"/></g></svg>